<svg xmlns="http://www.w3.org/2000/svg" xmlns:xlink="http://www.w3.org/1999/xlink" viewBox="0 0 328.13 124.52"><defs><style>.cls-1{isolation:isolate;}.cls-2,.cls-3,.cls-4{mix-blend-mode:multiply;}.cls-2{fill:url(#radial-gradient);}.cls-3{fill:url(#radial-gradient-2);}.cls-4{fill:url(#radial-gradient-3);}.cls-5{fill:#434657;}.cls-6{fill:#2b2a25;}.cls-7{fill:#f9cc3d;}.cls-8{fill:#686866;}.cls-9{fill:#777464;}.cls-10{fill:#424038;}.cls-11{fill:#b7b29e;}.cls-12,.cls-13{fill:#969283;}.cls-13{opacity:0.4;}.cls-14{fill:#97c1bf;}.cls-15{fill:#fff;opacity:0.5;}.cls-16{fill:#72726f;}.cls-17{fill:#b52c1a;}.cls-18{fill:#f23325;}.cls-19{fill:#fff35a;}.cls-20{fill:#555a6d;}</style><radialGradient id="radial-gradient" cx="-1250.28" cy="41814.81" r="56.83" gradientTransform="matrix(-0.91, 0, 0, 0.16, -894.26, -6749.76)" gradientUnits="userSpaceOnUse"><stop offset="0" stop-color="#757575"/><stop offset="0.25" stop-color="#b2b2b2"/><stop offset="0.54" stop-color="#d6d6d6"/><stop offset="0.83" stop-color="#f4f4f4"/><stop offset="1" stop-color="#fff"/></radialGradient><radialGradient id="radial-gradient-2" cx="-636.18" cy="41785.05" r="56.83" gradientTransform="matrix(-2.84, 0, 0, 0.16, -1643.11, -6749.76)" gradientUnits="userSpaceOnUse"><stop offset="0" stop-color="#8c8c8c"/><stop offset="0.3" stop-color="#b2b2b2"/><stop offset="0.45" stop-color="#bdbdbd"/><stop offset="0.71" stop-color="#d9d9d9"/><stop offset="1" stop-color="#fff"/></radialGradient><radialGradient id="radial-gradient-3" cx="-1073.01" cy="41814.81" r="56.83" xlink:href="#radial-gradient"/></defs><g class="cls-1"><g id="Layer_2" data-name="Layer 2"><g id="Layer_1-2" data-name="Layer 1"><g id="Taxi"><path class="cls-2" d="M196.56,114.23c0,5.68,23.65,10.29,52.83,10.29s52.83-4.61,52.83-10.29-23.65-10.3-52.83-10.3S196.56,108.54,196.56,114.23Z"/><path class="cls-3" d="M0,109.34c0,5.68,73.46,10.29,164.07,10.29S328.13,115,328.13,109.34,254.68,99.05,164.07,99.05,0,103.66,0,109.34Z"/><path class="cls-4" d="M34.41,114.23c0,5.68,23.65,10.29,52.83,10.29s52.83-4.61,52.83-10.29-23.65-10.3-52.83-10.3S34.41,108.54,34.41,114.23Z"/><path class="cls-5" d="M236.17,34.7s-6.38-5.29-13.8-12.26-20-18.3-27.44-20S151,.36,132.5.36c-20.45,0-43.17-1.69-49.38,2.27S57.06,33.19,57.06,33.19l63.16,10.56Z"/><path class="cls-6" d="M283.8,97.14S303.21,94,303.21,91.2s1.3-30.85-2.07-36.79-10.87-13.3-28.47-16.69-32.35-4-36.24-3.68-12.94,2.83-40.12,2.54S57.84,31.77,57.84,31.77a30.09,30.09,0,0,0-7.25,17c-.78,10.19-2.33,13.87-2.33,13.87L43.6,67.14s-1.81,1.7-2.33,7.08-2,10.8,1.81,14.71A19.09,19.09,0,0,0,54,94.31Z"/><path class="cls-7" d="M41.27,74.22c.52-5.38,2.33-7.08,2.33-7.08l4.66-4.52a123.93,123.93,0,0,0,1.55-13.87c.78-10.19,8-17,8-17s111.3,4.53,138.47,4.81,36.24-2.26,40.12-2.54,18.64.28,36.24,3.68,25.11,10.75,28.47,16.69,2.07,34,2.07,36.79-19.41,5.94-19.41,5.94L273.36,97a29.48,29.48,0,0,0,1.26-8.58c0-15.12-11.21-27.37-25-27.37s-25.05,12.25-25.05,27.37a.41.41,0,0,0,0,.11s0,0,0,.06a32.09,32.09,0,0,0,1,7.82L110.31,95a30.06,30.06,0,0,0,.72-6.57c0-15.12-11.21-27.37-25-27.37S61,73.31,61,88.43v.17a32.25,32.25,0,0,0,.52,5.8L54,94.31a19.09,19.09,0,0,1-10.87-5.38C39.3,85,40.75,79.59,41.27,74.22Z"/><path class="cls-8" d="M52.26,85.25c3.89-3.11,3.63-9.9,6.73-16.69s10.36-13,22-14.44c12.11-1.47,24.58,3.4,32.09,11.61,7,7.6,9.06,19,9.06,19l94,.85s0-9,9.57-21.5S263,53.27,272,63.74C278.3,71,282.37,83,282.37,83s8.78.22,11.64-.29c2.42-.42,9.45-3.45,9.45-3.45,0,5.94-.24,10.85-.24,12,0,2.83-19.41,5.94-19.41,5.94L273.37,97a29.82,29.82,0,0,0,1.25-8.58c0-15.12-11.21-27.37-25-27.37s-25,12.25-25,27.37v.17a32.09,32.09,0,0,0,1,7.82L110.31,95a29.46,29.46,0,0,0,.73-6.57c0-15.12-11.21-27.37-25-27.37S61,73.31,61,88.43v.17a33.2,33.2,0,0,0,.51,5.8L54,94.31a19.14,19.14,0,0,1-10.3-4.82C46.54,88.45,50.16,86.94,52.26,85.25Z"/><ellipse class="cls-9" cx="248.58" cy="87.33" rx="22.71" ry="24.83"/><path class="cls-10" d="M240,64.48C233.43,68.82,227.61,76,227.3,85c-.43,12.36,4.63,26.39,23.76,25.82a26.05,26.05,0,0,0,9.21-2.06c-3.42,2.24-8.37,3.32-12.64,3.32-12.54,0-21.76-10.9-21.76-24.61C225.87,77.08,231.73,68.17,240,64.48Z"/><path class="cls-11" d="M234.72,87.33c0,8.36,6.21,15.14,13.86,15.14s13.85-6.78,13.85-15.14-6.2-15.14-13.85-15.14S234.72,79,234.72,87.33Z"/><path class="cls-12" d="M235.85,87.33c0,7.68,5.7,13.91,12.73,13.91S261.3,95,261.3,87.33s-5.7-13.91-12.72-13.91S235.85,79.65,235.85,87.33Z"/><path class="cls-9" d="M239.56,87.33c0,5.45,4,9.86,9,9.86s9-4.41,9-9.86-4-9.86-9-9.86S239.56,81.88,239.56,87.33Z"/><path class="cls-12" d="M247.27,93.89a1.37,1.37,0,0,0,1.31,1.42h0a1.36,1.36,0,0,0,1.3-1.42V80.77a1.37,1.37,0,0,0-1.3-1.42h0a1.37,1.37,0,0,0-1.31,1.42Z"/><path class="cls-12" d="M242.58,85.76a1.38,1.38,0,0,0-1.31,1.43h0a1.37,1.37,0,0,0,1.31,1.42h12a1.36,1.36,0,0,0,1.3-1.42h0a1.37,1.37,0,0,0-1.3-1.43Z"/><path class="cls-12" d="M243.37,91a1.52,1.52,0,0,0,0,2h0a1.23,1.23,0,0,0,1.84,0l8.48-9.28a1.51,1.51,0,0,0,0-2h0a1.22,1.22,0,0,0-1.84,0Z"/><path class="cls-12" d="M245.3,81.64a1.22,1.22,0,0,0-1.84,0h0a1.51,1.51,0,0,0,0,2l8.48,9.28a1.24,1.24,0,0,0,1.85,0h0a1.52,1.52,0,0,0,0-2Z"/><path class="cls-12" d="M243.36,87.33a5.24,5.24,0,1,0,5.22-5.7A5.48,5.48,0,0,0,243.36,87.33Z"/><path class="cls-13" d="M269.14,86.11l-1.93-1.64A19.7,19.7,0,0,0,260,71a20.58,20.58,0,0,0-14.17-4.35L245.09,65s9.77-1.29,16.53,4.7A21.62,21.62,0,0,1,269.14,86.11Z"/><path class="cls-11" d="M248,80.59a.65.65,0,0,0,.62.68.68.68,0,1,0-.62-.68Z"/><path class="cls-11" d="M243.66,82.47a.62.62,0,1,0,.62-.67A.65.65,0,0,0,243.66,82.47Z"/><path class="cls-11" d="M241.62,87.23a.62.62,0,1,0,1.24,0,.62.62,0,1,0-1.24,0Z"/><path class="cls-11" d="M243.45,92.33a.65.65,0,0,0,.62.68.68.68,0,1,0-.62-.68Z"/><path class="cls-11" d="M248,94.1a.62.62,0,1,0,.62-.68A.65.65,0,0,0,248,94.1Z"/><path class="cls-11" d="M252.31,92a.62.62,0,1,0,1.23,0,.62.62,0,1,0-1.23,0Z"/><path class="cls-11" d="M254,87.29a.62.62,0,1,0,.61-.68A.64.64,0,0,0,254,87.29Z"/><path class="cls-11" d="M252.31,82.47a.62.62,0,1,0,.62-.67A.64.64,0,0,0,252.31,82.47Z"/><path class="cls-11" d="M245.71,87.33a2.88,2.88,0,1,0,2.87-3.13A3,3,0,0,0,245.71,87.33Z"/><path class="cls-9" d="M62.28,88.75c0,13.71,10.17,24.82,22.71,24.82s22.72-11.11,22.72-24.82S97.54,63.92,85,63.92,62.28,75,62.28,88.75Z"/><path class="cls-10" d="M76.45,65.89C69.85,70.23,64,77.4,63.71,86.43c-.43,12.37,4.64,26.39,23.77,25.83a26.33,26.33,0,0,0,9.21-2.07c-3.42,2.25-8.37,3.32-12.65,3.32-12.54,0-21.76-10.9-21.76-24.61C62.28,78.49,68.14,69.58,76.45,65.89Z"/><path class="cls-11" d="M71.14,88.75c0,8.36,6.2,15.14,13.85,15.14s13.86-6.78,13.86-15.14S92.64,73.6,85,73.6,71.14,80.38,71.14,88.75Z"/><path class="cls-12" d="M72.27,88.75c0,7.68,5.7,13.91,12.72,13.91s12.73-6.23,12.73-13.91S92,74.83,85,74.83,72.27,81.06,72.27,88.75Z"/><path class="cls-9" d="M76,88.75c0,5.44,4,9.86,9,9.86s9-4.42,9-9.86-4-9.87-9-9.87S76,83.3,76,88.75Z"/><path class="cls-12" d="M83.69,95.3A1.37,1.37,0,0,0,85,96.73h0A1.38,1.38,0,0,0,86.3,95.3V82.19A1.38,1.38,0,0,0,85,80.76h0a1.37,1.37,0,0,0-1.3,1.43Z"/><path class="cls-12" d="M79,87.18a1.37,1.37,0,0,0-1.31,1.42h0A1.38,1.38,0,0,0,79,90H91A1.38,1.38,0,0,0,92.3,88.6h0A1.37,1.37,0,0,0,91,87.18Z"/><path class="cls-12" d="M79.78,92.43a1.53,1.53,0,0,0,0,2h0a1.23,1.23,0,0,0,1.85,0l8.48-9.27a1.52,1.52,0,0,0,0-2h0a1.22,1.22,0,0,0-1.84,0Z"/><path class="cls-12" d="M81.72,83.05a1.22,1.22,0,0,0-1.84,0h0a1.52,1.52,0,0,0,0,2l8.48,9.27a1.22,1.22,0,0,0,1.84,0h0a1.52,1.52,0,0,0,0-2Z"/><path class="cls-12" d="M79.78,88.75A5.24,5.24,0,1,0,85,83,5.47,5.47,0,0,0,79.78,88.75Z"/><path class="cls-13" d="M105.56,87.53l-1.94-1.65a19.68,19.68,0,0,0-7.19-13.5A20.56,20.56,0,0,0,82.25,68L81.5,66.4S91.28,65.1,98,71.09A21.64,21.64,0,0,1,105.56,87.53Z"/><path class="cls-11" d="M84.38,82a.64.64,0,0,0,.61.67.65.65,0,0,0,.62-.67.66.66,0,0,0-.62-.68A.65.65,0,0,0,84.38,82Z"/><path class="cls-11" d="M80.08,83.89a.62.62,0,1,0,1.24,0,.62.62,0,1,0-1.24,0Z"/><path class="cls-11" d="M78,88.64a.65.65,0,0,0,.62.68.68.68,0,1,0-.62-.68Z"/><path class="cls-11" d="M79.87,93.75a.64.64,0,0,0,.61.67.65.65,0,0,0,.62-.67.66.66,0,0,0-.62-.68A.65.65,0,0,0,79.87,93.75Z"/><path class="cls-11" d="M84.43,95.51a.66.66,0,0,0,.62.68.65.65,0,0,0,.61-.68.64.64,0,0,0-.61-.67A.65.65,0,0,0,84.43,95.51Z"/><path class="cls-11" d="M88.72,93.46a.62.62,0,1,0,.62-.68A.65.65,0,0,0,88.72,93.46Z"/><path class="cls-11" d="M90.44,88.7a.62.62,0,1,0,1.24,0,.62.62,0,1,0-1.24,0Z"/><path class="cls-11" d="M88.72,83.89a.62.62,0,1,0,1.24,0,.62.62,0,1,0-1.24,0Z"/><path class="cls-11" d="M82.13,88.75A2.88,2.88,0,1,0,85,85.62,3,3,0,0,0,82.13,88.75Z"/><path class="cls-14" d="M213.77,32.62S195.91,7.15,193.32,6.3s-51.51-2-51.51-1.13,2.07,25.47,2.07,25.47Z"/><polygon class="cls-14" points="135.08 5.72 136.9 29.49 74.26 28.36 88.23 4.87 135.08 5.72"/><path class="cls-14" d="M284,47.11c4.08.52,7.52,3.47,9.88,6.75,2.84,4,4.55,8.88.4,8.78-4-.1-5.77-3.1-9.21-6.72S279.39,46.51,284,47.11Z"/><path class="cls-15" d="M289.69,55.26c2.24,2.68,4.59,4.33,5.24,3.68s-.64-3.35-2.88-6-4.59-4.32-5.24-3.67S287.45,52.58,289.69,55.26Z"/><path class="cls-16" d="M281.47,47.71l.95-.43s-2.14,2,4.34,9.67c5.61,6.66,9.95,4.58,9.95,4.58l-.15.78s-.48,1.55-4.51.6-8.61-7.42-10.5-11.14S281.47,47.71,281.47,47.71Z"/><path class="cls-17" d="M50,46.91s8.8-.23,9.72-.23a2.67,2.67,0,0,1,2.3,2.5c0,1.39-.69,10.3-.92,11.41a3.3,3.3,0,0,1-3.22,2.22c-1.62,0-9.68.28-9.68.28Z"/><polygon class="cls-18" points="59.76 48.44 58.93 60.78 55.63 60.78 56.45 48.31 59.76 48.44"/><polygon class="cls-19" points="228.78 40.54 248.97 50.16 57.43 43.94 65.2 34.88 228.78 40.54"/><path class="cls-19" d="M211.42,83.15l-84.64-1.28s8.16-6.79,34.17-7.64S211.42,83.15,211.42,83.15Z"/><path class="cls-6" d="M212.88,86.12l.08-.31c.06-.23,6.17-23.52,6.37-33.37.26-12.78-3.07-16.38-3.21-16.52a.37.37,0,0,0-.55,0,.46.46,0,0,0,0,.6s3.23,3.58,3,15.89c-.19,9.13-5.54,30.05-6.27,32.85l-72-.85c-.9-2.32-7.6-20.1-7.24-31.82.37-12.38,6.85-17.48,6.91-17.53a.45.45,0,0,0,.1-.59.37.37,0,0,0-.54-.1c-.28.21-6.86,5.4-7.25,18.19s7.33,32.25,7.41,32.44l.1.26H140Z"/><path class="cls-6" d="M138.7,46.32a1.55,1.55,0,0,0,1.47,1.61l12.13,0a1.54,1.54,0,0,0,1.48-1.6h0a1.55,1.55,0,0,0-1.47-1.61l-12.13,0a1.54,1.54,0,0,0-1.48,1.6Z"/><polygon class="cls-20" points="199.58 6.24 229.1 32.02 219.47 33.37 197.32 6.02 199.58 6.24"/><path class="cls-19" d="M281.39,71.7s-1.23-5.61-7.18-11.43c-4.77-4.68-17.63-6.06-17.63-6.06l-3.49-4s16.84-.49,24.82,6c7.38,6.05,9,19.28,9,19.28Z"/></g></g></g></g></svg>